EMG
version=1
nRows=13
nColumns=17
inDegrees=no
endheader
time	EMG01_right_gast_med	EMG02_right_glut_max	EMG03_left_gast_med	EMG04_left_glut_max	EMG05_right_glut_med	EMG06_right_bic_fem	EMG07_right_rect_fem	EMG08_right_vast_lat	EMG09_right_vast_med	EMG10_right_tens_fasc_lat	EMG11_left_glut_med	EMG12_left_bic_fem	EMG13_left_rect_fem	EMG14_left_vast_lat	EMG15_left_vast_med	EMG16_left_tens_fasc_lat
      1.67000000	      9.78659439	    -99.63404083	    -15.82942009	    -15.75089359	    249.03961182	    -64.80203247	    -30.79020500	    124.61895752	     65.23856354	     21.24938965	     10.96472836	    -12.14211273	      3.02435136	     23.40274429	     68.83294678	      7.44305897
      1.68000000	     49.23976898	   -105.44753265	     -6.80796242	    -10.69379997	    267.86563110	    -31.50374794	     -6.60157585	     39.68004227	     30.45559311	     25.42663574	      1.99898016	     -9.14121246	    -13.10007763	     21.00600624	     97.69658661	    -36.36362839
      1.69000000	     21.44728661	    -78.75389862	     -9.37851238	     -5.63495684	    159.81352234	    -59.50951767	      0.09249759	    -45.93176651	     26.10002899	     40.78674316	      0.40118992	     -7.55098915	     -3.53345990	     23.45417404	    158.00100708	    -57.49629593
      1.70000000	     56.63882828	     -2.80625749	     12.58680534	    117.15309143	    -39.55831909	    -55.08728027	     25.77234650	    -60.91732025	   -160.83192444	     59.79257584	     -3.51460528	     -3.05134153	    -21.44487000	    -12.18312550	    123.04525757	    -32.92219162
      1.71000000	     57.46867371	     22.12217712	     11.37134361	    213.87239075	    -49.96955490	    -36.01013947	     38.89278030	    -58.63479614	   -278.35043335	     77.06652832	      3.71753502	     -9.05614185	    -12.08065224	    -51.07736588	     -9.78273010	     -6.58068657
      1.72000000	    -46.55498123	    -10.28826523	      7.82908535	    512.13055420	    167.67912292	    -26.32835579	     31.39962196	    -69.76661682	   -125.84979248	    155.26560974	      6.05816412	    -13.30565548	     -7.57052708	    -47.48015976	   -111.20291901	     -1.73643291
      1.73000000	    -19.28433418	    -28.13808441	      6.90313244	    572.95190430	    126.00399017	     -9.67073250	     19.08639526	    -49.83602524	      4.37099457	    160.62722778	      0.40318918	     -7.36371613	     -8.98431206	    -11.78319359	   -120.13671875	   -103.03462982
      1.74000000	    278.83789062	    -42.31832886	     -5.06863499	    469.81060791	    103.83251953	      7.08329725	      9.57289219	     -6.82667589	     33.48362732	    123.56465149	     -2.36228871	     -1.10265851	     -0.37266445	      4.58912849	    -71.39891052	   -410.99700928
      1.75000000	     99.91329193	     -4.33036423	    -10.32812595	     77.10128021	    105.61279297	     11.99541283	    -19.03009987	     -2.37597251	    126.51161194	      5.40459347	      3.27115297	      7.65002966	      3.96864796	      4.98317289	    -37.04560852	   -497.99734497
      1.76000000	   -178.46542358	     53.83488464	    -11.04637146	     37.76833344	    -19.20915031	      1.28725457	    -19.90067673	     10.59164047	    123.14781189	    -68.58215332	      0.69282603	     -4.30849457	      4.74205637	     -0.31142372	    -30.05927467	   -304.05865479
      1.77000000	    -78.74378967	     97.02301788	     -6.36949205	   -111.77539062	    -42.86700058	     -7.47612238	    -20.32746696	     -6.33993578	     74.56826019	   -154.67233276	    -10.47830200	    -12.31126404	      8.62589169	    -14.79319572	    -30.52579308	   -136.98194885
      1.78000000	     59.05285645	    105.92768097	      4.77759552	   -219.21136475	   -154.50398254	    -14.42130661	    -11.70283031	      1.04924142	     18.56240463	   -107.09973145	    -10.08362961	     -8.98587132	      3.00065804	     -7.90525866	    -33.44433212	     92.03936768
      1.79000000	     -1.42729843	     75.27178192	      6.61443806	   -324.78158569	    -12.69056416	      3.03998137	     -5.74267054	      3.18805170	     -7.18216324	    -14.01077557	     -8.60212326	    -10.17828369	      2.01822472	     -7.55581045	    -21.17786598	    211.63854980
